<svg viewBox="0 0 65 56" fill="currentcolor" xmlns="http://www.w3.org/2000/svg">
<path d="M0.344727 20.4775C0.344727 24.372 3.44434 27.5488 7.30487 27.6906C7.39264 27.7158 7.47925 27.7451 7.57519 27.7451H20.6494V51.5039C20.6494 52.6621 21.1055 53.7549 21.9326 54.581C24.0781 56.7265 23.9511 55.5484 57.2012 55.8603C59.876 55.8603 62.0517 53.6865 62.0517 51.0146V48.7021C62.0517 48.1494 61.6045 47.7021 61.0517 47.7021H55.7988V27.7451H57.3955C61.3984 27.7451 64.6553 24.4834 64.6553 20.4751C64.6553 17.809 63.2067 15.4805 61.0594 14.218C63.303 12.8987 64.6553 10.5426 64.6553 7.94482C64.6553 3.93603 61.3984 0.674805 57.3955 0.674805H7.5752C7.48755 0.674805 7.40918 0.705815 7.32819 0.728635C3.45685 0.858335 0.344727 4.04004 0.344727 7.94239C0.344727 10.6234 1.81568 12.963 3.98951 14.2102C1.81567 15.4575 0.344727 17.7969 0.344727 20.4775ZM12.5021 25.7451C13.9105 24.4255 14.7969 22.5552 14.7969 20.4775C14.7969 18.4024 13.9126 16.5341 12.5071 15.2148H15.2415C15.3024 15.2264 15.3585 15.2515 15.4229 15.2515C18.3047 15.2515 20.6494 17.5957 20.6494 20.4775V25.7451L12.5021 25.7451ZM60.0518 51.0146C60.0518 52.584 58.7734 53.8603 57.2012 53.8603L28.6846 53.8496C29.1221 53.1641 29.3682 52.3545 29.3682 51.5019V51.3766C29.3682 51.3724 29.3691 51.3684 29.3691 51.3642V49.7041C30.364 49.704 53.3209 49.7026 60.0518 49.7021V51.0146ZM28.3682 47.7021C27.8154 47.7021 27.3682 48.1494 27.3682 48.7021V51.3771C27.3495 54.6585 22.6494 54.5515 22.6494 51.5039V20.4775C22.6494 18.4243 21.7881 16.5684 20.4092 15.2515H48.5732C51.4551 15.2515 53.7988 17.5957 53.7988 20.4775C53.7988 30.4406 53.7988 41.6316 53.7988 47.7021H28.3682ZM62.6553 20.4751C62.6553 23.3809 60.2959 25.7451 57.3955 25.7451H55.7988V20.4775C55.7988 18.4024 54.9145 16.5341 53.5091 15.2148H57.3955C60.2959 15.2148 62.6553 17.5747 62.6553 20.4751ZM62.6553 7.94482C62.6553 10.8373 60.329 13.2148 57.3955 13.2148H12.4969C13.9083 11.8951 14.7969 10.0228 14.7969 7.94237C14.7969 5.86461 13.9103 3.99425 12.5018 2.67479H57.3955C60.2959 2.67479 62.6553 5.03906 62.6553 7.94482ZM2.34473 7.94237C2.34473 5.06053 4.68946 2.7163 7.57129 2.7163C10.4531 2.7163 12.7969 5.06054 12.7969 7.94237C12.7969 10.8242 10.4531 13.1689 7.57129 13.1689C4.68945 13.1689 2.34473 10.8242 2.34473 7.94237ZM7.57129 15.2515C10.4531 15.2515 12.7969 17.5957 12.7969 20.4775C12.7969 23.3594 10.4531 25.7041 7.57129 25.7041C4.68945 25.7041 2.34473 23.3594 2.34473 20.4775C2.34473 17.5957 4.68945 15.2515 7.57129 15.2515Z" fill="currentcolor"/>
<path d="M32.8894 18H43.0023L46 21.8098L40.0406 27.2524H32.8894V30.838L34.298 32.6949H41.9549L43.9774 30.9341L45.5666 32.6949L43.0384 35H32.9255L30 31.1582V20.6573L32.8894 18ZM32.8894 21.3296V24.9473H38.9571L42.605 21.5537L41.6659 20.3051H34.0451L32.8894 21.3296Z" fill="currentcolor"/>
<path d="M49.1621 37.0078H27.541C26.9883 37.0078 26.541 37.4551 26.541 38.0078C26.541 38.5605 26.9883 39.0078 27.541 39.0078H49.1621C49.7148 39.0078 50.1621 38.5605 50.1621 38.0078C50.1621 37.4551 49.7148 37.0078 49.1621 37.0078Z" fill="currentcolor"/>
<path d="M49.1621 41.8213H27.541C26.9883 41.8213 26.541 42.2686 26.541 42.8213C26.541 43.374 26.9883 43.8213 27.541 43.8213H49.1621C49.7148 43.8213 50.1621 43.374 50.1621 42.8213C50.1621 42.2686 49.7148 41.8213 49.1621 41.8213Z" fill="currentcolor"/>
</svg>
