<svg viewBox="0 0 1428 600" fill="none" xmlns="http://www.w3.org/2000/svg">
<text fill="#5236A2" xml:space="preserve" style="white-space: pre" font-family="Solway" font-size="288" letter-spacing="-0.05em"><tspan x="514" y="327.8">nsome</tspan></text>
<text fill="#5236A2" xml:space="preserve" style="white-space: pre" font-family="Solway" font-size="168" font-weight="300" letter-spacing="0.11em"><tspan x="441" y="454.8">Creations</tspan></text>
<path d="M511.912 184C518.248 184 521.416 186.559 521.416 191.676V198.783C521.416 203.9 518.248 206.459 511.912 206.459H504.424L457 322.691C446 347.369 438.5 336.511 432.424 321.597L384.616 206.459H377.128C370.792 206.459 367.624 203.9 367.624 198.783V191.676C367.624 186.559 370.792 184 377.128 184H416.584C422.728 184 425.8 186.559 425.8 191.676V198.783C425.8 203.9 422.728 206.459 416.584 206.459H411.688L445.96 290.894L479.656 206.459H473.896C467.56 206.459 464.392 203.9 464.392 198.783V191.676C464.392 186.559 467.56 184 473.896 184H511.912Z" fill="#5236A2"/>
<path d="M377.3 83C385 83 388.85 86.1243 388.85 92.3729V101.051C388.85 107.3 385 110.424 377.3 110.424H368.2L337.75 214.394L307.3 318.363C306.6 320.677 305.2 322.529 303.1 323.917C301 325.306 298.55 326 295.75 326H285.6C279.767 326 275.917 323.454 274.05 318.363L246.75 240.082L219.45 161.801L164.5 318.363C162.633 323.454 158.783 326 152.95 326H142.45C139.65 326 137.2 325.306 135.1 323.917C133.233 322.529 131.95 320.677 131.25 318.363L70.35 110.424H61.25C53.55 110.424 49.7 107.3 49.7 101.051V92.3729C49.7 86.1243 53.55 83 61.25 83H73.4999C96.112 83 97.4999 94.4061 102.2 110.424L150.5 276.359L203.35 126.393C204.283 123.847 205.683 121.88 207.55 120.491C209.65 118.871 211.983 118.061 214.55 118.061H227.5C229.833 118.061 231.933 118.871 233.8 120.491C235.9 121.88 237.417 123.847 238.35 126.393L291.2 276.359L339.15 110.424C343.5 96.3898 344.382 83 366.5 83H377.3Z" fill="#5236A2"/>
<ellipse cx="382.5" cy="110.276" rx="27.5" ry="27.2755" fill="#5236A2"/>
<ellipse cx="57.5" cy="110.276" rx="27.5" ry="27.2755" fill="#5236A2"/>
<path d="M85 319.5C85 334.136 72.6878 346 57.5 346C42.3122 346 30 334.136 30 319.5C30 304.864 42.3122 293 57.5 293C72.6878 293 85 304.864 85 319.5Z" fill="#5236A2"/>
<path d="M41 322C41 322 99.8593 447 243.5 447C387.141 447 446 322 446 322" stroke="#5236A2" stroke-width="22" stroke-linecap="round" stroke-linejoin="round"/>
</svg>
